# This file uses centimeters as units for non-parametric coordinates.

mtllib Shotgun_Shell.mtl
g default
v -0.205676 -0.697899 0.120679
v -0.158317 -0.697899 0.178330
v -0.095462 -0.697899 0.218524
v -0.023262 -0.697899 0.237329
v 0.051215 -0.697899 0.232901
v 0.120679 -0.697899 0.205676
v 0.178330 -0.697899 0.158317
v 0.218524 -0.697899 0.095462
v 0.237329 -0.697899 0.023262
v 0.232901 -0.697899 -0.051215
v 0.205676 -0.697899 -0.120679
v 0.158317 -0.697899 -0.178329
v 0.095462 -0.697899 -0.218524
v 0.023262 -0.697899 -0.237328
v -0.051215 -0.697899 -0.232901
v -0.120679 -0.697899 -0.205675
v -0.178329 -0.697899 -0.158317
v -0.218524 -0.697899 -0.095462
v -0.237328 -0.697899 -0.023262
v -0.232900 -0.697899 0.051215
v -0.205676 0.638696 0.120679
v -0.158317 0.638696 0.178330
v -0.095462 0.638696 0.218524
v -0.023262 0.638696 0.237329
v 0.051215 0.638696 0.232901
v 0.120679 0.638696 0.205676
v 0.178330 0.638696 0.158317
v 0.218524 0.638696 0.095462
v 0.237329 0.638696 0.023262
v 0.232901 0.638696 -0.051215
v 0.205676 0.638696 -0.120679
v 0.158317 0.638696 -0.178329
v 0.095462 0.638696 -0.218524
v 0.023262 0.638696 -0.237328
v -0.051215 0.638696 -0.232901
v -0.120679 0.638696 -0.205675
v -0.178329 0.638696 -0.158317
v -0.218524 0.638696 -0.095462
v -0.237328 0.638696 -0.023262
v -0.232900 0.638696 0.051215
v -0.213154 0.651138 0.125066
v -0.164074 0.651138 0.184813
v -0.098933 0.651138 0.226469
v -0.024108 0.651138 0.245957
v 0.053077 0.651138 0.241369
v 0.125067 0.651138 0.213153
v 0.184813 0.651138 0.164073
v 0.226469 0.651138 0.098933
v 0.245957 0.651138 0.024108
v 0.241369 0.651138 -0.053077
v 0.213154 0.651138 -0.125066
v 0.164073 0.651138 -0.184813
v 0.098933 0.651138 -0.226469
v 0.024108 0.651138 -0.245957
v -0.053077 0.651138 -0.241368
v -0.125066 0.651138 -0.213153
v -0.184813 0.651138 -0.164073
v -0.226470 0.651138 -0.098932
v -0.245957 0.651138 -0.024107
v -0.241368 0.651138 0.053077
v -0.213154 0.682938 0.125066
v -0.164074 0.682938 0.184813
v -0.098933 0.682938 0.226469
v -0.024108 0.682938 0.245957
v 0.053077 0.682938 0.241369
v 0.125067 0.682938 0.213153
v 0.184813 0.682938 0.164073
v 0.226469 0.682938 0.098933
v 0.245957 0.682938 0.024108
v 0.241369 0.682938 -0.053077
v 0.213154 0.682938 -0.125066
v 0.164073 0.682938 -0.184813
v 0.098933 0.682938 -0.226469
v 0.024108 0.682938 -0.245957
v -0.053077 0.682938 -0.241368
v -0.125066 0.682938 -0.213153
v -0.184813 0.682938 -0.164073
v -0.226470 0.682938 -0.098932
v -0.245957 0.682938 -0.024107
v -0.241368 0.682938 0.053077
v -0.202576 0.697899 0.118860
v -0.155931 0.697899 0.175642
v 0.000000 0.697899 0.000000
v -0.094023 0.697899 0.215231
v -0.022911 0.697899 0.233751
v 0.050443 0.697899 0.229391
v 0.118860 0.697899 0.202576
v 0.175642 0.697899 0.155931
v 0.215231 0.697899 0.094023
v 0.233751 0.697899 0.022911
v 0.229391 0.697899 -0.050443
v 0.202576 0.697899 -0.118860
v 0.155931 0.697899 -0.175642
v 0.094023 0.697899 -0.215230
v 0.022911 0.697899 -0.233751
v -0.050443 0.697899 -0.229391
v -0.118860 0.697899 -0.202576
v -0.175642 0.697899 -0.155931
v -0.215231 0.697899 -0.094023
v -0.233751 0.697899 -0.022911
v -0.229391 0.697899 0.050443
v -0.194987 -0.680777 0.114407
v -0.150089 -0.680777 0.169062
v 0.000000 -0.680777 0.000000
v -0.090501 -0.680777 0.207168
v -0.022053 -0.680777 0.224995
v 0.048554 -0.680777 0.220797
v 0.114407 -0.680777 0.194987
v 0.169062 -0.680777 0.150090
v 0.207168 -0.680777 0.090501
v 0.224995 -0.680777 0.022053
v 0.220797 -0.680777 -0.048553
v 0.194987 -0.680777 -0.114407
v 0.150090 -0.680777 -0.169062
v 0.090501 -0.680777 -0.207168
v 0.022053 -0.680777 -0.224995
v -0.048553 -0.680777 -0.220797
v -0.114407 -0.680777 -0.194987
v -0.169061 -0.680777 -0.150090
v -0.207167 -0.680777 -0.090501
v -0.224994 -0.680777 -0.022053
v -0.220796 -0.680777 0.048553
vt 0.724257 0.857700
vt 0.722728 0.862420
vt 0.708591 0.855233
vt 0.724252 0.852738
vt 0.722715 0.848021
vt 0.719795 0.844009
vt 0.715778 0.841097
vt 0.711058 0.839568
vt 0.706097 0.839572
vt 0.701379 0.841109
vt 0.697368 0.844029
vt 0.694455 0.848046
vt 0.692926 0.852766
vt 0.692931 0.857727
vt 0.694468 0.862445
vt 0.697388 0.866456
vt 0.701404 0.869369
vt 0.706125 0.870898
vt 0.711086 0.870893
vt 0.715803 0.869356
vt 0.719815 0.866436
vt 0.757066 0.872022
vt 0.752234 0.870449
vt 0.759617 0.855981
vt 0.748125 0.867460
vt 0.745140 0.863347
vt 0.743573 0.858512
vt 0.743576 0.853431
vt 0.745149 0.848599
vt 0.748139 0.844489
vt 0.752252 0.841504
vt 0.757086 0.839937
vt 0.762168 0.839940
vt 0.767000 0.841513
vt 0.771110 0.844503
vt 0.774094 0.848616
vt 0.775662 0.853450
vt 0.775658 0.858532
vt 0.774085 0.863364
vt 0.771096 0.867474
vt 0.766983 0.870458
vt 0.762149 0.872026
vt 0.756358 0.876545
vt 0.750163 0.874531
vt 0.750638 0.873605
vt 0.756524 0.875517
vt 0.744893 0.870702
vt 0.745632 0.869968
vt 0.741065 0.865431
vt 0.741995 0.864961
vt 0.739053 0.859236
vt 0.740082 0.859076
vt 0.739054 0.852722
vt 0.740082 0.852888
vt 0.741067 0.846527
vt 0.741994 0.847003
vt 0.744897 0.841257
vt 0.745631 0.841996
vt 0.750167 0.837429
vt 0.750637 0.838359
vt 0.756362 0.835417
vt 0.756522 0.836446
vt 0.762876 0.835418
vt 0.762711 0.836446
vt 0.769072 0.837431
vt 0.768596 0.838358
vt 0.774341 0.841261
vt 0.773602 0.841995
vt 0.778169 0.846531
vt 0.777240 0.847001
vt 0.780182 0.852727
vt 0.779152 0.852886
vt 0.780181 0.859241
vt 0.779153 0.859075
vt 0.778167 0.865436
vt 0.777240 0.864960
vt 0.774338 0.870705
vt 0.773603 0.869966
vt 0.769067 0.874533
vt 0.768597 0.873604
vt 0.762872 0.876546
vt 0.762712 0.875516
vt 0.751628 0.871646
vt 0.756860 0.873348
vt 0.747179 0.868410
vt 0.743947 0.863958
vt 0.742249 0.858725
vt 0.742251 0.853224
vt 0.743953 0.847992
vt 0.747188 0.843543
vt 0.751640 0.840311
vt 0.756873 0.838613
vt 0.762375 0.838615
vt 0.767606 0.840317
vt 0.772056 0.843552
vt 0.775288 0.848004
vt 0.776986 0.853237
vt 0.776984 0.858739
vt 0.775282 0.863970
vt 0.772046 0.868420
vt 0.767594 0.871652
vt 0.762361 0.873350
vt 0.678446 0.887271
vt 0.678462 0.981139
vt 0.673222 0.981140
vt 0.673206 0.887271
vt 0.573651 0.887288
vt 0.578891 0.887287
vt 0.578906 0.981156
vt 0.573667 0.981156
vt 0.584130 0.887286
vt 0.584146 0.981155
vt 0.589370 0.887285
vt 0.589386 0.981154
vt 0.594610 0.887284
vt 0.594626 0.981153
vt 0.599850 0.887284
vt 0.599865 0.981152
vt 0.605089 0.887283
vt 0.605105 0.981151
vt 0.610329 0.887282
vt 0.610345 0.981151
vt 0.615569 0.887281
vt 0.615585 0.981150
vt 0.620809 0.887280
vt 0.620824 0.981149
vt 0.626049 0.887279
vt 0.626064 0.981148
vt 0.631288 0.887278
vt 0.631304 0.981147
vt 0.636528 0.887277
vt 0.636544 0.981146
vt 0.641768 0.887277
vt 0.641783 0.981145
vt 0.647007 0.887276
vt 0.647023 0.981144
vt 0.652247 0.887275
vt 0.652263 0.981144
vt 0.657487 0.887274
vt 0.657503 0.981143
vt 0.662726 0.887273
vt 0.662742 0.981142
vt 0.667967 0.887272
vt 0.667982 0.981141
vt 0.725726 0.857926
vt 0.724055 0.863089
vt 0.725719 0.852500
vt 0.724037 0.847341
vt 0.720842 0.842954
vt 0.716448 0.839769
vt 0.711285 0.838098
vt 0.705859 0.838105
vt 0.700699 0.839787
vt 0.696313 0.842982
vt 0.693128 0.847376
vt 0.691457 0.852539
vt 0.691463 0.857966
vt 0.693146 0.863125
vt 0.696341 0.867511
vt 0.700735 0.870696
vt 0.705898 0.872367
vt 0.711324 0.872361
vt 0.716484 0.870678
vt 0.720870 0.867483
vn 0.000000 -1.000000 -0.000001
vn 0.000000 -1.000000 0.000000
vn 0.000000 -1.000000 0.000000
vn 0.000000 -1.000000 -0.000000
vn 0.000000 -1.000000 0.000000
vn 0.000000 -1.000000 0.000000
vn 0.000000 -1.000000 0.000000
vn 0.000000 -1.000000 0.000000
vn 0.000000 -1.000000 0.000000
vn 0.000000 -1.000000 0.000000
vn 0.000000 -1.000000 0.000000
vn 0.000000 -1.000000 0.000000
vn 0.000000 -1.000000 0.000000
vn 0.000000 -1.000000 -0.000000
vn 0.000000 -1.000000 -0.000000
vn 0.000000 -1.000000 0.000000
vn 0.000000 -1.000000 0.000000
vn 0.000000 -1.000000 0.000000
vn 0.000000 -1.000000 0.000000
vn 0.000000 -1.000000 0.000000
vn 0.000000 -1.000000 0.000001
vn 0.000000 1.000000 -0.000000
vn 0.000000 1.000000 0.000001
vn 0.000000 1.000000 -0.000000
vn 0.000000 1.000000 0.000000
vn 0.000000 1.000000 0.000000
vn 0.000000 1.000000 -0.000000
vn 0.000000 1.000000 -0.000000
vn 0.000000 1.000000 0.000000
vn 0.000000 1.000000 0.000000
vn 0.000000 1.000000 0.000000
vn 0.000000 1.000000 -0.000001
vn 0.000000 1.000000 -0.000001
vn 0.000000 1.000000 0.000000
vn 0.000000 1.000000 0.000000
vn 0.000000 1.000000 0.000000
vn 0.000000 1.000000 0.000000
vn 0.000000 1.000000 0.000000
vn 0.000000 1.000000 0.000000
vn 0.000000 1.000000 0.000000
vn 0.000000 1.000000 0.000000
vn 0.000000 1.000000 -0.000001
vn -0.707635 -0.571720 0.415197
vn -0.544693 -0.571721 0.613551
vn -0.544700 -0.571721 0.613545
vn -0.707636 -0.571720 0.415195
vn -0.328447 -0.571698 0.751853
vn -0.328445 -0.571698 0.751854
vn -0.080036 -0.571686 0.816559
vn -0.080034 -0.571686 0.816560
vn 0.176211 -0.571692 0.801323
vn 0.176211 -0.571692 0.801323
vn 0.415210 -0.571692 0.707650
vn 0.415210 -0.571692 0.707650
vn 0.613562 -0.571695 0.544707
vn 0.613563 -0.571695 0.544706
vn 0.751853 -0.571698 0.328448
vn 0.751854 -0.571698 0.328445
vn 0.816552 -0.571696 0.080037
vn 0.816552 -0.571696 0.080035
vn 0.801321 -0.571695 -0.176211
vn 0.801321 -0.571695 -0.176211
vn 0.707650 -0.571693 -0.415209
vn 0.707650 -0.571693 -0.415209
vn 0.544708 -0.571692 -0.613565
vn 0.544709 -0.571692 -0.613564
vn 0.328450 -0.571688 -0.751860
vn 0.328450 -0.571688 -0.751860
vn 0.080035 -0.571686 -0.816560
vn 0.080037 -0.571686 -0.816559
vn -0.176214 -0.571689 -0.801324
vn -0.176212 -0.571689 -0.801325
vn -0.415210 -0.571690 -0.707651
vn -0.415209 -0.571690 -0.707652
vn -0.613559 -0.571700 -0.544705
vn -0.613558 -0.571700 -0.544707
vn -0.751838 -0.571720 -0.328444
vn -0.751842 -0.571720 -0.328436
vn -0.816532 -0.571726 -0.080030
vn -0.816532 -0.571726 -0.080028
vn -0.801306 -0.571717 0.176206
vn -0.801306 -0.571717 0.176205
vn -0.862500 0.000000 0.506058
vn -0.663899 0.000000 0.747822
vn -0.663899 0.000000 0.747822
vn -0.862500 0.000000 0.506058
vn -0.400313 0.000000 0.916379
vn -0.400313 0.000000 0.916379
vn -0.097549 0.000000 0.995231
vn -0.097549 0.000000 0.995231
vn 0.214769 0.000000 0.976665
vn 0.214769 0.000000 0.976665
vn 0.506064 0.000000 0.862496
vn 0.506064 0.000000 0.862496
vn 0.747821 0.000000 0.663901
vn 0.747821 0.000000 0.663901
vn 0.916377 0.000000 0.400317
vn 0.916377 0.000000 0.400317
vn 0.995231 0.000000 0.097548
vn 0.995231 0.000000 0.097548
vn 0.976665 0.000000 -0.214769
vn 0.976665 0.000000 -0.214769
vn 0.862496 0.000000 -0.506064
vn 0.862496 0.000000 -0.506064
vn 0.663900 0.000000 -0.747821
vn 0.663900 0.000000 -0.747821
vn 0.400318 0.000000 -0.916376
vn 0.400318 0.000000 -0.916376
vn 0.097549 0.000000 -0.995231
vn 0.097549 0.000000 -0.995231
vn -0.214769 0.000000 -0.976665
vn -0.214769 0.000000 -0.976665
vn -0.506063 0.000000 -0.862497
vn -0.506063 0.000000 -0.862497
vn -0.747818 0.000000 -0.663904
vn -0.747818 0.000000 -0.663904
vn -0.916375 0.000000 -0.400320
vn -0.916375 0.000000 -0.400320
vn -0.995231 0.000000 -0.097543
vn -0.995231 0.000000 -0.097543
vn -0.976665 0.000000 0.214769
vn -0.976665 0.000000 0.214769
vn -0.667029 0.633956 0.391371
vn -0.513438 0.633963 0.578336
vn -0.513433 0.633963 0.578340
vn -0.667029 0.633956 0.391372
vn -0.309593 0.633955 0.708699
vn -0.309592 0.633955 0.708699
vn -0.075443 0.633946 0.769689
vn -0.075442 0.633946 0.769689
vn 0.166098 0.633946 0.755330
vn 0.166098 0.633946 0.755331
vn 0.391379 0.633948 0.667032
vn 0.391379 0.633948 0.667033
vn 0.578347 0.633949 0.513443
vn 0.578346 0.633949 0.513443
vn 0.708703 0.633949 0.309595
vn 0.708703 0.633949 0.309595
vn 0.769686 0.633950 0.075441
vn 0.769685 0.633950 0.075441
vn 0.755328 0.633949 -0.166097
vn 0.755328 0.633949 -0.166097
vn 0.667035 0.633946 -0.391379
vn 0.667036 0.633946 -0.391378
vn 0.513445 0.633945 -0.578349
vn 0.513445 0.633945 -0.578349
vn 0.309595 0.633948 -0.708704
vn 0.309595 0.633948 -0.708704
vn 0.075444 0.633948 -0.769687
vn 0.075442 0.633948 -0.769687
vn -0.166097 0.633943 -0.755333
vn -0.166099 0.633943 -0.755332
vn -0.391379 0.633941 -0.667039
vn -0.391380 0.633941 -0.667038
vn -0.578344 0.633948 -0.513447
vn -0.578346 0.633948 -0.513445
vn -0.708694 0.633962 -0.309590
vn -0.708691 0.633962 -0.309595
vn -0.769676 0.633962 -0.075438
vn -0.769676 0.633962 -0.075439
vn -0.755326 0.633952 0.166095
vn -0.755326 0.633952 0.166095
vn -0.862497 0.000000 0.506062
vn -0.862497 0.000000 0.506062
vn -0.976666 0.000000 0.214766
vn -0.976666 0.000000 0.214766
vn -0.663900 0.000000 0.747821
vn -0.663900 0.000000 0.747821
vn -0.400321 0.000000 0.916375
vn -0.400321 0.000000 0.916375
vn -0.097547 0.000000 0.995231
vn -0.097547 0.000000 0.995231
vn 0.214769 0.000000 0.976665
vn 0.214769 0.000000 0.976665
vn 0.506064 0.000000 0.862496
vn 0.506064 0.000000 0.862496
vn 0.747823 0.000000 0.663899
vn 0.747823 0.000000 0.663899
vn 0.916376 0.000000 0.400319
vn 0.916376 0.000000 0.400319
vn 0.995231 0.000000 0.097549
vn 0.995231 0.000000 0.097549
vn 0.976665 0.000000 -0.214769
vn 0.976665 0.000000 -0.214769
vn 0.862496 0.000000 -0.506064
vn 0.862496 0.000000 -0.506064
vn 0.663900 0.000000 -0.747822
vn 0.663900 0.000000 -0.747822
vn 0.400320 0.000000 -0.916376
vn 0.400320 0.000000 -0.916376
vn 0.097548 0.000000 -0.995231
vn 0.097548 0.000000 -0.995231
vn -0.214771 0.000000 -0.976664
vn -0.214771 0.000000 -0.976664
vn -0.506064 0.000000 -0.862496
vn -0.506064 0.000000 -0.862496
vn -0.747821 0.000000 -0.663900
vn -0.747821 0.000000 -0.663900
vn -0.916377 0.000000 -0.400317
vn -0.916377 0.000000 -0.400317
vn -0.995231 0.000000 -0.097546
vn -0.995231 0.000000 -0.097546
vn 0.537809 -0.586325 -0.605792
vn 0.698688 -0.586327 -0.409947
vn 0.698688 -0.586327 -0.409948
vn 0.537810 -0.586325 -0.605792
vn 0.324290 -0.586327 -0.742332
vn 0.324289 -0.586327 -0.742332
vn 0.079019 -0.586327 -0.806211
vn 0.079021 -0.586327 -0.806211
vn -0.173978 -0.586326 -0.791172
vn -0.173980 -0.586326 -0.791172
vn -0.409949 -0.586327 -0.698686
vn -0.409949 -0.586327 -0.698686
vn -0.605792 -0.586327 -0.537806
vn -0.605792 -0.586327 -0.537807
vn -0.742333 -0.586326 -0.324288
vn -0.742333 -0.586326 -0.324288
vn -0.806211 -0.586327 -0.079022
vn -0.806211 -0.586327 -0.079022
vn -0.791172 -0.586326 0.173978
vn -0.791172 -0.586326 0.173979
vn -0.698688 -0.586324 0.409950
vn -0.698688 -0.586324 0.409951
vn -0.537810 -0.586322 0.605794
vn -0.537811 -0.586322 0.605794
vn -0.324289 -0.586325 0.742334
vn -0.324289 -0.586325 0.742334
vn -0.079020 -0.586328 0.806210
vn -0.079020 -0.586328 0.806210
vn 0.173980 -0.586330 0.791169
vn 0.173980 -0.586330 0.791169
vn 0.409947 -0.586327 0.698687
vn 0.409949 -0.586327 0.698686
vn 0.605792 -0.586326 0.537808
vn 0.605790 -0.586326 0.537810
vn 0.742333 -0.586327 0.324288
vn 0.742334 -0.586327 0.324287
vn 0.806212 -0.586327 0.079019
vn 0.806212 -0.586327 0.079019
vn 0.791172 -0.586327 -0.173977
vn 0.791172 -0.586327 -0.173976
s 1
g Shotgun_Shell
usemtl initialShadingGroup
f 103/1/1 102/2/2 104/3/3
f 105/4/4 103/1/1 104/3/3
f 106/5/5 105/4/4 104/3/3
f 107/6/6 106/5/5 104/3/3
f 108/7/7 107/6/6 104/3/3
f 109/8/8 108/7/7 104/3/3
f 110/9/9 109/8/8 104/3/3
f 111/10/10 110/9/9 104/3/3
f 112/11/11 111/10/10 104/3/3
f 113/12/12 112/11/11 104/3/3
f 114/13/13 113/12/12 104/3/3
f 115/14/14 114/13/13 104/3/3
f 116/15/15 115/14/14 104/3/3
f 117/16/16 116/15/15 104/3/3
f 118/17/17 117/16/16 104/3/3
f 119/18/18 118/17/17 104/3/3
f 120/19/19 119/18/18 104/3/3
f 121/20/20 120/19/19 104/3/3
f 122/21/21 121/20/20 104/3/3
f 102/2/2 122/21/21 104/3/3
s 2
f 81/22/22 82/23/23 83/24/24
f 82/23/23 84/25/25 83/24/24
f 84/25/25 85/26/26 83/24/24
f 85/26/26 86/27/27 83/24/24
f 86/27/27 87/28/28 83/24/24
f 87/28/28 88/29/29 83/24/24
f 88/29/29 89/30/30 83/24/24
f 89/30/30 90/31/31 83/24/24
f 90/31/31 91/32/32 83/24/24
f 91/32/32 92/33/33 83/24/24
f 92/33/33 93/34/34 83/24/24
f 93/34/34 94/35/35 83/24/24
f 94/35/35 95/36/36 83/24/24
f 95/36/36 96/37/37 83/24/24
f 96/37/37 97/38/38 83/24/24
f 97/38/38 98/39/39 83/24/24
f 98/39/39 99/40/40 83/24/24
f 99/40/40 100/41/41 83/24/24
f 100/41/41 101/42/42 83/24/24
f 101/42/42 81/22/22 83/24/24
s 3
f 21/43/43 22/44/44 42/45/45 41/46/46
f 22/44/44 23/47/47 43/48/48 42/45/45
f 23/47/47 24/49/49 44/50/50 43/48/48
f 24/49/49 25/51/51 45/52/52 44/50/50
f 25/51/51 26/53/53 46/54/54 45/52/52
f 26/53/53 27/55/55 47/56/56 46/54/54
f 27/55/55 28/57/57 48/58/58 47/56/56
f 28/57/57 29/59/59 49/60/60 48/58/58
f 29/59/59 30/61/61 50/62/62 49/60/60
f 30/61/61 31/63/63 51/64/64 50/62/62
f 31/63/63 32/65/65 52/66/66 51/64/64
f 32/65/65 33/67/67 53/68/68 52/66/66
f 33/67/67 34/69/69 54/70/70 53/68/68
f 34/69/69 35/71/71 55/72/72 54/70/70
f 35/71/71 36/73/73 56/74/74 55/72/72
f 36/73/73 37/75/75 57/76/76 56/74/74
f 37/75/75 38/77/77 58/78/78 57/76/76
f 38/77/77 39/79/79 59/80/80 58/78/78
f 39/79/79 40/81/81 60/82/82 59/80/80
f 40/81/81 21/43/43 41/46/46 60/82/82
s 4
f 41/46/83 42/45/84 62/83/85 61/84/86
f 42/45/84 43/48/87 63/85/88 62/83/85
f 43/48/87 44/50/89 64/86/90 63/85/88
f 44/50/89 45/52/91 65/87/92 64/86/90
f 45/52/91 46/54/93 66/88/94 65/87/92
f 46/54/93 47/56/95 67/89/96 66/88/94
f 47/56/95 48/58/97 68/90/98 67/89/96
f 48/58/97 49/60/99 69/91/100 68/90/98
f 49/60/99 50/62/101 70/92/102 69/91/100
f 50/62/101 51/64/103 71/93/104 70/92/102
f 51/64/103 52/66/105 72/94/106 71/93/104
f 52/66/105 53/68/107 73/95/108 72/94/106
f 53/68/107 54/70/109 74/96/110 73/95/108
f 54/70/109 55/72/111 75/97/112 74/96/110
f 55/72/111 56/74/113 76/98/114 75/97/112
f 56/74/113 57/76/115 77/99/116 76/98/114
f 57/76/115 58/78/117 78/100/118 77/99/116
f 58/78/117 59/80/119 79/101/120 78/100/118
f 59/80/119 60/82/121 80/102/122 79/101/120
f 60/82/121 41/46/83 61/84/86 80/102/122
s 5
f 61/84/123 62/83/124 82/23/125 81/22/126
f 62/83/124 63/85/127 84/25/128 82/23/125
f 63/85/127 64/86/129 85/26/130 84/25/128
f 64/86/129 65/87/131 86/27/132 85/26/130
f 65/87/131 66/88/133 87/28/134 86/27/132
f 66/88/133 67/89/135 88/29/136 87/28/134
f 67/89/135 68/90/137 89/30/138 88/29/136
f 68/90/137 69/91/139 90/31/140 89/30/138
f 69/91/139 70/92/141 91/32/142 90/31/140
f 70/92/141 71/93/143 92/33/144 91/32/142
f 71/93/143 72/94/145 93/34/146 92/33/144
f 72/94/145 73/95/147 94/35/148 93/34/146
f 73/95/147 74/96/149 95/36/150 94/35/148
f 74/96/149 75/97/151 96/37/152 95/36/150
f 75/97/151 76/98/153 97/38/154 96/37/152
f 76/98/153 77/99/155 98/39/156 97/38/154
f 77/99/155 78/100/157 99/40/158 98/39/156
f 78/100/157 79/101/159 100/41/160 99/40/158
f 79/101/159 80/102/161 101/42/162 100/41/160
f 80/102/161 61/84/123 81/22/126 101/42/162
s 6
f 1/103/163 21/104/164 40/105/165 20/106/166
f 1/107/163 2/108/167 22/109/168 21/110/164
f 22/109/168 2/108/167 3/111/169 23/112/170
f 23/112/170 3/111/169 4/113/171 24/114/172
f 24/114/172 4/113/171 5/115/173 25/116/174
f 25/116/174 5/115/173 6/117/175 26/118/176
f 26/118/176 6/117/175 7/119/177 27/120/178
f 27/120/178 7/119/177 8/121/179 28/122/180
f 28/122/180 8/121/179 9/123/181 29/124/182
f 29/124/182 9/123/181 10/125/183 30/126/184
f 30/126/184 10/125/183 11/127/185 31/128/186
f 31/128/186 11/127/185 12/129/187 32/130/188
f 32/130/188 12/129/187 13/131/189 33/132/190
f 33/132/190 13/131/189 14/133/191 34/134/192
f 34/134/192 14/133/191 15/135/193 35/136/194
f 35/136/194 15/135/193 16/137/195 36/138/196
f 36/138/196 16/137/195 17/139/197 37/140/198
f 37/140/198 17/139/197 18/141/199 38/142/200
f 38/142/200 18/141/199 19/143/201 39/144/202
f 39/144/202 19/143/201 20/106/166 40/105/165
s 7
f 2/145/203 1/146/204 102/2/205 103/1/206
f 3/147/207 2/145/203 103/1/206 105/4/208
f 4/148/209 3/147/207 105/4/208 106/5/210
f 5/149/211 4/148/209 106/5/210 107/6/212
f 6/150/213 5/149/211 107/6/212 108/7/214
f 7/151/215 6/150/213 108/7/214 109/8/216
f 8/152/217 7/151/215 109/8/216 110/9/218
f 9/153/219 8/152/217 110/9/218 111/10/220
f 10/154/221 9/153/219 111/10/220 112/11/222
f 11/155/223 10/154/221 112/11/222 113/12/224
f 12/156/225 11/155/223 113/12/224 114/13/226
f 13/157/227 12/156/225 114/13/226 115/14/228
f 14/158/229 13/157/227 115/14/228 116/15/230
f 15/159/231 14/158/229 116/15/230 117/16/232
f 16/160/233 15/159/231 117/16/232 118/17/234
f 17/161/235 16/160/233 118/17/234 119/18/236
f 18/162/237 17/161/235 119/18/236 120/19/238
f 19/163/239 18/162/237 120/19/238 121/20/240
f 20/164/241 19/163/239 121/20/240 122/21/242
f 1/146/204 20/164/241 122/21/242 102/2/205
